<svg xmlns="http://www.w3.org/2000/svg" width="54" height="71" viewBox="0 0 54 71">
  <defs>
    <linearGradient id="shield_v4-a" x1="3.541%" x2="20.012%" y1="-14.945%" y2="78.801%">
      <stop offset="0%" stop-color="#ADADAD"/>
      <stop offset="100%" stop-color="#424242"/>
    </linearGradient>
    <linearGradient id="shield_v4-b" x1="21.086%" x2="21.086%" y1="42.173%" y2="100%">
      <stop offset="0%" stop-color="#FFF"/>
      <stop offset="100%" stop-color="#C8C8C8"/>
    </linearGradient>
  </defs>
  <g fill="none" fill-rule="evenodd" transform="translate(-.129 10)">
    <path fill="url(#shield_v4-a)" fill-rule="nonzero" d="M0,11.820299 C0,9.42869899 1.992754,7.48992899 4.450944,7.48992899 L7.745924,7.48992899 C8.420534,7.48992899 9.087634,7.35271899 9.704384,7.08701899 L25.297684,0.370688994 C26.461484,-0.130593006 27.790184,-0.123155006 28.947984,0.391128994 L43.972784,7.06479899 C44.603484,7.34495899 45.288684,7.48992899 45.982084,7.48992899 L49.806684,7.48992899 C52.264884,7.48992899 54.257584,9.42869899 54.257584,11.820299 L54.257584,32.354599 C54.257584,33.446299 53.833784,34.497699 53.070984,35.298299 L29.905684,59.613399 C28.119884,61.487899 25.062584,61.457699 23.316284,59.548299 L1.125814,35.285999 C0.400634,34.493099 0,33.468699 0,32.407399 L0,11.820299 Z"/>
    <path stroke="#FFF" stroke-width=".5" d="M-4.4408921e-16,11.820299 C-4.4408921e-16,9.42869899 1.992754,7.48992899 4.450944,7.48992899 L7.745924,7.48992899 C8.420534,7.48992899 9.087634,7.35271899 9.704384,7.08701899 L25.297684,0.370688994 C26.461484,-0.130593006 27.790184,-0.123155006 28.947984,0.391128994 L43.972784,7.06479899 C44.603484,7.34495899 45.288684,7.48992899 45.982084,7.48992899 L49.806684,7.48992899 C52.264884,7.48992899 54.257584,9.42869899 54.257584,11.820299 L54.257584,32.354599 C54.257584,33.446299 53.833784,34.497699 53.070984,35.298299 L29.905684,59.613399 C28.119884,61.487899 25.062584,61.457699 23.316284,59.548299 L1.125814,35.285999 C0.400634,34.493099 -4.4408921e-16,33.468699 -4.4408921e-16,32.407399 L-4.4408921e-16,11.820299 Z"/>
    <path fill="url(#shield_v4-b)" d="M42.652984,19.899599 C43.217084,20.448399 43.217084,21.338399 42.652984,21.887199 L25.629284,38.449799 C25.065084,38.998699 24.150384,38.998699 23.586284,38.449799 C23.494984,38.360999 23.418384,38.263199 23.356584,38.159299 L13.031784,28.114199 C12.502384,27.599099 12.502384,26.763999 13.031784,26.248999 C13.561184,25.733899 14.419484,25.733899 14.948884,26.248999 L24.516284,35.557199 L40.609984,19.899599 C41.174084,19.350699 42.088784,19.350699 42.652984,19.899599 Z"/>
  </g>
</svg>
